<svg version="1.1" xmlns="http://www.w3.org/2000/svg" xmlns:xlink="http://www.w3.org/1999/xlink" width="530" height="409" viewBox="0,0,530,409"><g transform="translate(26.39999,27.78497)"><g fill="#000000" stroke="none" stroke-miterlimit="10"><path d="M191.07876,147.38584v16.30708h-16.30708v-16.30708z" stroke-width="6.23247"/><path d="M207.38584,163.69292v16.30708h-16.30708v-16.30708z" stroke-width="6.23247"/><path d="M223.69292,147.38584v16.30708h-16.30708v-16.30708z" stroke-width="6.23247"/><path d="M240,163.69292v16.30708h-16.30708v-16.30708z" stroke-width="6.23247"/><path d="M125.85044,147.38584v16.30708h-16.30708v-16.30708z" stroke-width="6.23247"/><path d="M142.15752,163.69292v16.30708h-16.30708v-16.30708z" stroke-width="6.23247"/><path d="M158.4646,147.38584v16.30708h-16.30708v-16.30708z" stroke-width="6.23247"/><path d="M174.77168,163.69292v16.30708h-16.30708v-16.30708z" stroke-width="6.23247"/><path d="M60.62212,147.38584v16.30708h-16.30708v-16.30708z" stroke-width="6.23247"/><path d="M76.9292,163.69292v16.30708h-16.30708v-16.30708z" stroke-width="6.23247"/><path d="M93.23628,147.38584v16.30708h-16.30708v-16.30708z" stroke-width="6.23247"/><path d="M109.54336,163.69292v16.30708h-16.30708v-16.30708z" stroke-width="6.23247"/><path d="M-4.6062,147.38584v16.30708h-16.30708v-16.30708z" stroke-width="6.23247"/><path d="M11.70088,163.69292v16.30708h-16.30708v-16.30708z" stroke-width="6.23247"/><path d="M28.00796,147.38584v16.30708h-16.30708v-16.30708z" stroke-width="6.23247"/><path d="M44.31504,163.69292v16.30708h-16.30708v-16.30708z" stroke-width="6.23247"/><path d="M451.99204,147.38584v16.30708h-16.30708v-16.30708z" stroke-width="6.23247"/><path d="M468.29912,163.69292v16.30708h-16.30708v-16.30708z" stroke-width="6.23247"/><path d="M484.6062,147.38584v16.30708h-16.30708v-16.30708z" stroke-width="6.23247"/><path d="M500.91328,163.69292v16.30708h-16.30708v-16.30708z" stroke-width="6.23247"/><path d="M386.76372,147.38584v16.30708h-16.30708v-16.30708z" stroke-width="6.23247"/><path d="M403.0708,163.69292v16.30708h-16.30708v-16.30708z" stroke-width="6.23247"/><path d="M419.37788,147.38584v16.30708h-16.30708v-16.30708z" stroke-width="6.23247"/><path d="M435.68496,163.69292v16.30708h-16.30708v-16.30708z" stroke-width="6.23247"/><path d="M321.5354,147.38584v16.30708h-16.30708v-16.30708z" stroke-width="6.23247"/><path d="M337.84248,163.69292v16.30708h-16.30708v-16.30708z" stroke-width="6.23247"/><path d="M354.14956,147.38584v16.30708h-16.30708v-16.30708z" stroke-width="6.23247"/><path d="M370.45664,163.69292v16.30708h-16.30708v-16.30708z" stroke-width="6.23247"/><path d="M256.30708,147.38584v16.30708h-16.30708v-16.30708z" stroke-width="6.23247"/><path d="M272.61416,163.69292v16.30708h-16.30708v-16.30708z" stroke-width="6.23247"/><path d="M288.92124,147.38584v16.30708h-16.30708v-16.30708z" stroke-width="6.23247"/><path d="M305.22832,163.69292v16.30708h-16.30708v-16.30708z" stroke-width="6.23247"/><path d="M191.07876,114.77168v16.30708h-16.30708v-16.30708z" stroke-width="6.23247"/><path d="M207.38584,131.07876v16.30708h-16.30708v-16.30708z" stroke-width="6.23247"/><path d="M223.69292,114.77168v16.30708h-16.30708v-16.30708z" stroke-width="6.23247"/><path d="M240,131.07876v16.30708h-16.30708v-16.30708z" stroke-width="6.23247"/><path d="M125.85044,114.77168v16.30708h-16.30708v-16.30708z" stroke-width="6.23247"/><path d="M142.15752,131.07876v16.30708h-16.30708v-16.30708z" stroke-width="6.23247"/><path d="M158.4646,114.77168v16.30708h-16.30708v-16.30708z" stroke-width="6.23247"/><path d="M174.77168,131.07876v16.30708h-16.30708v-16.30708z" stroke-width="6.23247"/><path d="M60.62212,114.77168v16.30708h-16.30708v-16.30708z" stroke-width="6.23247"/><path d="M76.9292,131.07876v16.30708h-16.30708v-16.30708z" stroke-width="6.23247"/><path d="M93.23628,114.77168v16.30708h-16.30708v-16.30708z" stroke-width="6.23247"/><path d="M109.54336,131.07876v16.30708h-16.30708v-16.30708z" stroke-width="6.23247"/><path d="M-4.6062,114.77168v16.30708h-16.30708v-16.30708z" stroke-width="6.23247"/><path d="M11.70088,131.07876v16.30708h-16.30708v-16.30708z" stroke-width="6.23247"/><path d="M28.00796,114.77168v16.30708h-16.30708v-16.30708z" stroke-width="6.23247"/><path d="M44.31504,131.07876v16.30708h-16.30708v-16.30708z" stroke-width="6.23247"/><path d="M451.99204,114.77168v16.30708h-16.30708v-16.30708z" stroke-width="6.23247"/><path d="M468.29912,131.07876v16.30708h-16.30708v-16.30708z" stroke-width="6.23247"/><path d="M484.6062,114.77168v16.30708h-16.30708v-16.30708z" stroke-width="6.23247"/><path d="M500.91328,131.07876v16.30708h-16.30708v-16.30708z" stroke-width="6.23247"/><path d="M386.76372,114.77168v16.30708h-16.30708v-16.30708z" stroke-width="6.23247"/><path d="M403.0708,131.07876v16.30708h-16.30708v-16.30708z" stroke-width="6.23247"/><path d="M419.37788,114.77168v16.30708h-16.30708v-16.30708z" stroke-width="6.23247"/><path d="M435.68496,131.07876v16.30708h-16.30708v-16.30708z" stroke-width="6.23247"/><path d="M321.5354,114.77168v16.30708h-16.30708v-16.30708z" stroke-width="6.23247"/><path d="M337.84248,131.07876v16.30708h-16.30708v-16.30708z" stroke-width="6.23247"/><path d="M354.14956,114.77168v16.30708h-16.30708v-16.30708z" stroke-width="6.23247"/><path d="M370.45664,131.07876v16.30708h-16.30708v-16.30708z" stroke-width="6.23247"/><path d="M256.30708,114.77168v16.30708h-16.30708v-16.30708z" stroke-width="6.23247"/><path d="M272.61416,131.07876v16.30708h-16.30708v-16.30708z" stroke-width="6.23247"/><path d="M288.92124,114.77168v16.30708h-16.30708v-16.30708z" stroke-width="6.23247"/><path d="M305.22832,131.07876v16.30708h-16.30708v-16.30708z" stroke-width="6.23247"/><path d="M191.07876,82.15752v16.30708h-16.30708v-16.30708z" stroke-width="6.23247"/><path d="M207.38584,98.4646v16.30708h-16.30708v-16.30708z" stroke-width="6.23247"/><path d="M223.69292,82.15752v16.30708h-16.30708v-16.30708z" stroke-width="6.23247"/><path d="M240,98.4646v16.30708h-16.30708v-16.30708z" stroke-width="6.23247"/><path d="M125.85044,82.15752v16.30708h-16.30708v-16.30708z" stroke-width="6.23247"/><path d="M142.15752,98.4646v16.30708h-16.30708v-16.30708z" stroke-width="6.23247"/><path d="M158.4646,82.15752v16.30708h-16.30708v-16.30708z" stroke-width="6.23247"/><path d="M174.77168,98.4646v16.30708h-16.30708v-16.30708z" stroke-width="6.23247"/><path d="M60.62212,82.15752v16.30708h-16.30708v-16.30708z" stroke-width="6.23247"/><path d="M76.9292,98.4646v16.30708h-16.30708v-16.30708z" stroke-width="6.23247"/><path d="M93.23628,82.15752v16.30708h-16.30708v-16.30708z" stroke-width="6.23247"/><path d="M109.54336,98.4646v16.30708h-16.30708v-16.30708z" stroke-width="6.23247"/><path d="M-4.6062,82.15752v16.30708h-16.30708v-16.30708z" stroke-width="6.23247"/><path d="M11.70088,98.4646v16.30708h-16.30708v-16.30708z" stroke-width="6.23247"/><path d="M28.00796,82.15752v16.30708h-16.30708v-16.30708z" stroke-width="6.23247"/><path d="M44.31504,98.4646v16.30708h-16.30708v-16.30708z" stroke-width="6.23247"/><path d="M451.99204,82.15752v16.30708h-16.30708v-16.30708z" stroke-width="6.23247"/><path d="M468.29912,98.4646v16.30708h-16.30708v-16.30708z" stroke-width="6.23247"/><path d="M484.6062,82.15752v16.30708h-16.30708v-16.30708z" stroke-width="6.23247"/><path d="M500.91328,98.4646v16.30708h-16.30708v-16.30708z" stroke-width="6.23247"/><path d="M386.76372,82.15752v16.30708h-16.30708v-16.30708z" stroke-width="6.23247"/><path d="M403.0708,98.4646v16.30708h-16.30708v-16.30708z" stroke-width="6.23247"/><path d="M419.37788,82.15752v16.30708h-16.30708v-16.30708z" stroke-width="6.23247"/><path d="M435.68496,98.4646v16.30708h-16.30708v-16.30708z" stroke-width="6.23247"/><path d="M321.5354,82.15752v16.30708h-16.30708v-16.30708z" stroke-width="6.23247"/><path d="M337.84248,98.4646v16.30708h-16.30708v-16.30708z" stroke-width="6.23247"/><path d="M354.14956,82.15752v16.30708h-16.30708v-16.30708z" stroke-width="6.23247"/><path d="M370.45664,98.4646v16.30708h-16.30708v-16.30708z" stroke-width="6.23247"/><path d="M256.30708,82.15752v16.30708h-16.30708v-16.30708z" stroke-width="6.23247"/><path d="M272.61416,98.4646v16.30708h-16.30708v-16.30708z" stroke-width="6.23247"/><path d="M288.92124,82.15752v16.30708h-16.30708v-16.30708z" stroke-width="6.23247"/><path d="M305.22832,98.4646v16.30708h-16.30708v-16.30708z" stroke-width="6.23247"/><path d="M191.07876,49.54336v16.30708h-16.30708v-16.30708z" stroke-width="6.23247"/><path d="M207.38584,65.85044v16.30708h-16.30708v-16.30708z" stroke-width="6.23247"/><path d="M223.69292,49.54336v16.30708h-16.30708v-16.30708z" stroke-width="6.23247"/><path d="M240,65.85044v16.30708h-16.30708v-16.30708z" stroke-width="6.23247"/><path d="M125.85044,49.54336v16.30708h-16.30708v-16.30708z" stroke-width="6.23247"/><path d="M142.15752,65.85044v16.30708h-16.30708v-16.30708z" stroke-width="6.23247"/><path d="M158.4646,49.54336v16.30708h-16.30708v-16.30708z" stroke-width="6.23247"/><path d="M174.77168,65.85044v16.30708h-16.30708v-16.30708z" stroke-width="6.23247"/><path d="M60.62212,49.54336v16.30708h-16.30708v-16.30708z" stroke-width="6.23247"/><path d="M76.9292,65.85044v16.30708h-16.30708v-16.30708z" stroke-width="6.23247"/><path d="M93.23628,49.54336v16.30708h-16.30708v-16.30708z" stroke-width="6.23247"/><path d="M109.54336,65.85044v16.30708h-16.30708v-16.30708z" stroke-width="6.23247"/><path d="M-4.6062,49.54336v16.30708h-16.30708v-16.30708z" stroke-width="6.23247"/><path d="M11.70088,65.85044v16.30708h-16.30708v-16.30708z" stroke-width="6.23247"/><path d="M28.00796,49.54336v16.30708h-16.30708v-16.30708z" stroke-width="6.23247"/><path d="M44.31504,65.85044v16.30708h-16.30708v-16.30708z" stroke-width="6.23247"/><path d="M451.99204,49.54336v16.30708h-16.30708v-16.30708z" stroke-width="6.23247"/><path d="M468.29912,65.85044v16.30708h-16.30708v-16.30708z" stroke-width="6.23247"/><path d="M484.6062,49.54336v16.30708h-16.30708v-16.30708z" stroke-width="6.23247"/><path d="M500.91328,65.85044v16.30708h-16.30708v-16.30708z" stroke-width="6.23247"/><path d="M386.76372,49.54336v16.30708h-16.30708v-16.30708z" stroke-width="6.23247"/><path d="M403.0708,65.85044v16.30708h-16.30708v-16.30708z" stroke-width="6.23247"/><path d="M419.37788,49.54336v16.30708h-16.30708v-16.30708z" stroke-width="6.23247"/><path d="M435.68496,65.85044v16.30708h-16.30708v-16.30708z" stroke-width="6.23247"/><path d="M321.5354,49.54336v16.30708h-16.30708v-16.30708z" stroke-width="6.23247"/><path d="M337.84248,65.85044v16.30708h-16.30708v-16.30708z" stroke-width="6.23247"/><path d="M354.14956,49.54336v16.30708h-16.30708v-16.30708z" stroke-width="6.23247"/><path d="M370.45664,65.85044v16.30708h-16.30708v-16.30708z" stroke-width="6.23247"/><path d="M256.30708,49.54336v16.30708h-16.30708v-16.30708z" stroke-width="6.23247"/><path d="M272.61416,65.85044v16.30708h-16.30708v-16.30708z" stroke-width="6.23247"/><path d="M288.92124,49.54336v16.30708h-16.30708v-16.30708z" stroke-width="6.23247"/><path d="M305.22832,65.85044v16.30708h-16.30708v-16.30708z" stroke-width="6.23247"/><path d="M191.07876,16.9292v16.30708h-16.30708v-16.30708z" stroke-width="6.23247"/><path d="M207.38584,33.23628v16.30708h-16.30708v-16.30708z" stroke-width="6.23247"/><path d="M223.69292,16.9292v16.30708h-16.30708v-16.30708z" stroke-width="6.23247"/><path d="M240,33.23628v16.30708h-16.30708v-16.30708z" stroke-width="6.23247"/><path d="M125.85044,16.9292v16.30708h-16.30708v-16.30708z" stroke-width="6.23247"/><path d="M142.15752,33.23628v16.30708h-16.30708v-16.30708z" stroke-width="6.23247"/><path d="M158.4646,16.9292v16.30708h-16.30708v-16.30708z" stroke-width="6.23247"/><path d="M174.77168,33.23628v16.30708h-16.30708v-16.30708z" stroke-width="6.23247"/><path d="M60.62212,16.9292v16.30708h-16.30708v-16.30708z" stroke-width="6.23247"/><path d="M76.9292,33.23628v16.30708h-16.30708v-16.30708z" stroke-width="6.23247"/><path d="M93.23628,16.9292v16.30708h-16.30708v-16.30708z" stroke-width="6.23247"/><path d="M109.54336,33.23628v16.30708h-16.30708v-16.30708z" stroke-width="6.23247"/><path d="M-4.6062,16.9292v16.30708h-16.30708v-16.30708z" stroke-width="6.23247"/><path d="M11.70088,33.23628v16.30708h-16.30708v-16.30708z" stroke-width="6.23247"/><path d="M28.00796,16.9292v16.30708h-16.30708v-16.30708z" stroke-width="6.23247"/><path d="M44.31504,33.23628v16.30708h-16.30708v-16.30708z" stroke-width="6.23247"/><path d="M451.99204,16.9292v16.30708h-16.30708v-16.30708z" stroke-width="6.23247"/><path d="M468.29912,33.23628v16.30708h-16.30708v-16.30708z" stroke-width="6.23247"/><path d="M484.6062,16.9292v16.30708h-16.30708v-16.30708z" stroke-width="6.23247"/><path d="M500.91328,33.23628v16.30708h-16.30708v-16.30708z" stroke-width="6.23247"/><path d="M386.76372,16.9292v16.30708h-16.30708v-16.30708z" stroke-width="6.23247"/><path d="M403.0708,33.23628v16.30708h-16.30708v-16.30708z" stroke-width="6.23247"/><path d="M419.37788,16.9292v16.30708h-16.30708v-16.30708z" stroke-width="6.23247"/><path d="M435.68496,33.23628v16.30708h-16.30708v-16.30708z" stroke-width="6.23247"/><path d="M321.5354,16.9292v16.30708h-16.30708v-16.30708z" stroke-width="6.23247"/><path d="M337.84248,33.23628v16.30708h-16.30708v-16.30708z" stroke-width="6.23247"/><path d="M354.14956,16.9292v16.30708h-16.30708v-16.30708z" stroke-width="6.23247"/><path d="M370.45664,33.23628v16.30708h-16.30708v-16.30708z" stroke-width="6.23247"/><path d="M256.30708,16.9292v16.30708h-16.30708v-16.30708z" stroke-width="6.23247"/><path d="M272.61416,33.23628v16.30708h-16.30708v-16.30708z" stroke-width="6.23247"/><path d="M288.92124,16.9292v16.30708h-16.30708v-16.30708z" stroke-width="6.23247"/><path d="M305.22832,33.23628v16.30708h-16.30708v-16.30708z" stroke-width="6.23247"/><path d="M191.07876,-15.68496v16.30708h-16.30708v-16.30708z" stroke-width="6.23247"/><path d="M207.38584,0.62212v16.30708h-16.30708v-16.30708z" stroke-width="6.23247"/><path d="M223.69292,-15.68496v16.30708h-16.30708v-16.30708z" stroke-width="6.23247"/><path d="M240,0.62212v16.30708h-16.30708v-16.30708z" stroke-width="6.23247"/><path d="M125.85044,-15.68496v16.30708h-16.30708v-16.30708z" stroke-width="6.23247"/><path d="M142.15752,0.62212v16.30708h-16.30708v-16.30708z" stroke-width="6.23247"/><path d="M158.4646,-15.68496v16.30708h-16.30708v-16.30708z" stroke-width="6.23247"/><path d="M174.77168,0.62212v16.30708h-16.30708v-16.30708z" stroke-width="6.23247"/><path d="M60.62212,-15.68496v16.30708h-16.30708v-16.30708z" stroke-width="6.23247"/><path d="M76.9292,0.62212v16.30708h-16.30708v-16.30708z" stroke-width="6.23247"/><path d="M93.23628,-15.68496v16.30708h-16.30708v-16.30708z" stroke-width="6.23247"/><path d="M109.54336,0.62212v16.30708h-16.30708v-16.30708z" stroke-width="6.23247"/><path d="M-4.6062,-15.68496v16.30708h-16.30708v-16.30708z" stroke-width="6.23247"/><path d="M11.70088,0.62212v16.30708h-16.30708v-16.30708z" stroke-width="6.23247"/><path d="M28.00796,-15.68496v16.30708h-16.30708v-16.30708z" stroke-width="6.23247"/><path d="M44.31504,0.62212v16.30708h-16.30708v-16.30708z" stroke-width="6.23247"/><path d="M451.99204,-15.68496v16.30708h-16.30708v-16.30708z" stroke-width="6.23247"/><path d="M468.29912,0.62212v16.30708h-16.30708v-16.30708z" stroke-width="6.23247"/><path d="M484.6062,-15.68496v16.30708h-16.30708v-16.30708z" stroke-width="6.23247"/><path d="M500.91328,0.62212v16.30708h-16.30708v-16.30708z" stroke-width="6.23247"/><path d="M386.76372,-15.68496v16.30708h-16.30708v-16.30708z" stroke-width="6.23247"/><path d="M403.0708,0.62212v16.30708h-16.30708v-16.30708z" stroke-width="6.23247"/><path d="M419.37788,-15.68496v16.30708h-16.30708v-16.30708z" stroke-width="6.23247"/><path d="M435.68496,0.62212v16.30708h-16.30708v-16.30708z" stroke-width="6.23247"/><path d="M321.5354,-15.68496v16.30708h-16.30708v-16.30708z" stroke-width="6.23247"/><path d="M337.84248,0.62212v16.30708h-16.30708v-16.30708z" stroke-width="6.23247"/><path d="M354.14956,-15.68496v16.30708h-16.30708v-16.30708z" stroke-width="6.23247"/><path d="M370.45664,0.62212v16.30708h-16.30708v-16.30708z" stroke-width="6.23247"/><path d="M256.30708,-15.68496v16.30708h-16.30708v-16.30708z" stroke-width="6.23247"/><path d="M272.61416,0.62212v16.30708h-16.30708v-16.30708z" stroke-width="6.23247"/><path d="M288.92124,-15.68496v16.30708h-16.30708v-16.30708z" stroke-width="6.23247"/><path d="M305.22832,0.62212v16.30708h-16.30708v-16.30708z" stroke-width="6.23247"/><path d="M191.07876,343.0708v16.30708h-16.30708v-16.30708z" stroke-width="6.23247"/><path d="M207.38584,359.37788v16.30708h-16.30708v-16.30708z" stroke-width="6.23247"/><path d="M223.69292,343.0708v16.30708h-16.30708v-16.30708z" stroke-width="6.23247"/><path d="M240,359.37788v16.30708h-16.30708v-16.30708z" stroke-width="6.23247"/><path d="M125.85044,343.0708v16.30708h-16.30708v-16.30708z" stroke-width="6.23247"/><path d="M142.15752,359.37788v16.30708h-16.30708v-16.30708z" stroke-width="6.23247"/><path d="M158.4646,343.0708v16.30708h-16.30708v-16.30708z" stroke-width="6.23247"/><path d="M174.77168,359.37788v16.30708h-16.30708v-16.30708z" stroke-width="6.23247"/><path d="M60.62212,343.0708v16.30708h-16.30708v-16.30708z" stroke-width="6.23247"/><path d="M76.9292,359.37788v16.30708h-16.30708v-16.30708z" stroke-width="6.23247"/><path d="M93.23628,343.0708v16.30708h-16.30708v-16.30708z" stroke-width="6.23247"/><path d="M109.54336,359.37788v16.30708h-16.30708v-16.30708z" stroke-width="6.23247"/><path d="M-4.6062,343.0708v16.30708h-16.30708v-16.30708z" stroke-width="6.23247"/><path d="M11.70088,359.37788v16.30708h-16.30708v-16.30708z" stroke-width="6.23247"/><path d="M28.00796,343.0708v16.30708h-16.30708v-16.30708z" stroke-width="6.23247"/><path d="M44.31504,359.37788v16.30708h-16.30708v-16.30708z" stroke-width="6.23247"/><path d="M451.99204,343.0708v16.30708h-16.30708v-16.30708z" stroke-width="6.23247"/><path d="M468.29912,359.37788v16.30708h-16.30708v-16.30708z" stroke-width="6.23247"/><path d="M484.6062,343.0708v16.30708h-16.30708v-16.30708z" stroke-width="6.23247"/><path d="M500.91328,359.37788v16.30708h-16.30708v-16.30708z" stroke-width="6.23247"/><path d="M386.76372,343.0708v16.30708h-16.30708v-16.30708z" stroke-width="6.23247"/><path d="M403.0708,359.37788v16.30708h-16.30708v-16.30708z" stroke-width="6.23247"/><path d="M419.37788,343.0708v16.30708h-16.30708v-16.30708z" stroke-width="6.23247"/><path d="M435.68496,359.37788v16.30708h-16.30708v-16.30708z" stroke-width="6.23247"/><path d="M321.5354,343.0708v16.30708h-16.30708v-16.30708z" stroke-width="6.23247"/><path d="M337.84248,359.37788v16.30708h-16.30708v-16.30708z" stroke-width="6.23247"/><path d="M354.14956,343.0708v16.30708h-16.30708v-16.30708z" stroke-width="6.23247"/><path d="M370.45664,359.37788v16.30708h-16.30708v-16.30708z" stroke-width="6.23247"/><path d="M256.30708,343.0708v16.30708h-16.30708v-16.30708z" stroke-width="6.23247"/><path d="M272.61416,359.37788v16.30708h-16.30708v-16.30708z" stroke-width="6.23247"/><path d="M288.92124,343.0708v16.30708h-16.30708v-16.30708z" stroke-width="6.23247"/><path d="M305.22832,359.37788v16.30708h-16.30708v-16.30708z" stroke-width="6.23247"/><path d="M191.07876,310.45664v16.30708h-16.30708v-16.30708z" stroke-width="6.23247"/><path d="M207.38584,326.76372v16.30708h-16.30708v-16.30708z" stroke-width="6.23247"/><path d="M223.69292,310.45664v16.30708h-16.30708v-16.30708z" stroke-width="6.23247"/><path d="M240,326.76372v16.30708h-16.30708v-16.30708z" stroke-width="6.23247"/><path d="M125.85044,310.45664v16.30708h-16.30708v-16.30708z" stroke-width="6.23247"/><path d="M142.15752,326.76372v16.30708h-16.30708v-16.30708z" stroke-width="6.23247"/><path d="M158.4646,310.45664v16.30708h-16.30708v-16.30708z" stroke-width="6.23247"/><path d="M174.77168,326.76372v16.30708h-16.30708v-16.30708z" stroke-width="6.23247"/><path d="M60.62212,310.45664v16.30708h-16.30708v-16.30708z" stroke-width="6.23247"/><path d="M76.9292,326.76372v16.30708h-16.30708v-16.30708z" stroke-width="6.23247"/><path d="M93.23628,310.45664v16.30708h-16.30708v-16.30708z" stroke-width="6.23247"/><path d="M109.54336,326.76372v16.30708h-16.30708v-16.30708z" stroke-width="6.23247"/><path d="M-4.6062,310.45664v16.30708h-16.30708v-16.30708z" stroke-width="6.23247"/><path d="M11.70088,326.76372v16.30708h-16.30708v-16.30708z" stroke-width="6.23247"/><path d="M28.00796,310.45664v16.30708h-16.30708v-16.30708z" stroke-width="6.23247"/><path d="M44.31504,326.76372v16.30708h-16.30708v-16.30708z" stroke-width="6.23247"/><path d="M451.99204,310.45664v16.30708h-16.30708v-16.30708z" stroke-width="6.23247"/><path d="M468.29912,326.76372v16.30708h-16.30708v-16.30708z" stroke-width="6.23247"/><path d="M484.6062,310.45664v16.30708h-16.30708v-16.30708z" stroke-width="6.23247"/><path d="M500.91328,326.76372v16.30708h-16.30708v-16.30708z" stroke-width="6.23247"/><path d="M386.76372,310.45664v16.30708h-16.30708v-16.30708z" stroke-width="6.23247"/><path d="M403.0708,326.76372v16.30708h-16.30708v-16.30708z" stroke-width="6.23247"/><path d="M419.37788,310.45664v16.30708h-16.30708v-16.30708z" stroke-width="6.23247"/><path d="M435.68496,326.76372v16.30708h-16.30708v-16.30708z" stroke-width="6.23247"/><path d="M321.5354,310.45664v16.30708h-16.30708v-16.30708z" stroke-width="6.23247"/><path d="M337.84248,326.76372v16.30708h-16.30708v-16.30708z" stroke-width="6.23247"/><path d="M354.14956,310.45664v16.30708h-16.30708v-16.30708z" stroke-width="6.23247"/><path d="M370.45664,326.76372v16.30708h-16.30708v-16.30708z" stroke-width="6.23247"/><path d="M256.30708,310.45664v16.30708h-16.30708v-16.30708z" stroke-width="6.23247"/><path d="M272.61416,326.76372v16.30708h-16.30708v-16.30708z" stroke-width="6.23247"/><path d="M288.92124,310.45664v16.30708h-16.30708v-16.30708z" stroke-width="6.23247"/><path d="M305.22832,326.76372v16.30708h-16.30708v-16.30708z" stroke-width="6.23247"/><path d="M191.07876,277.84248v16.30708h-16.30708v-16.30708z" stroke-width="6.23247"/><path d="M207.38584,294.14956v16.30708h-16.30708v-16.30708z" stroke-width="6.23247"/><path d="M223.69292,277.84248v16.30708h-16.30708v-16.30708z" stroke-width="6.23247"/><path d="M240,294.14956v16.30708h-16.30708v-16.30708z" stroke-width="6.23247"/><path d="M125.85044,277.84248v16.30708h-16.30708v-16.30708z" stroke-width="6.23247"/><path d="M142.15752,294.14956v16.30708h-16.30708v-16.30708z" stroke-width="6.23247"/><path d="M158.4646,277.84248v16.30708h-16.30708v-16.30708z" stroke-width="6.23247"/><path d="M174.77168,294.14956v16.30708h-16.30708v-16.30708z" stroke-width="6.23247"/><path d="M60.62212,277.84248v16.30708h-16.30708v-16.30708z" stroke-width="6.23247"/><path d="M76.9292,294.14956v16.30708h-16.30708v-16.30708z" stroke-width="6.23247"/><path d="M93.23628,277.84248v16.30708h-16.30708v-16.30708z" stroke-width="6.23247"/><path d="M109.54336,294.14956v16.30708h-16.30708v-16.30708z" stroke-width="6.23247"/><path d="M-4.6062,277.84248v16.30708h-16.30708v-16.30708z" stroke-width="6.23247"/><path d="M11.70088,294.14956v16.30708h-16.30708v-16.30708z" stroke-width="6.23247"/><path d="M28.00796,277.84248v16.30708h-16.30708v-16.30708z" stroke-width="6.23247"/><path d="M44.31504,294.14956v16.30708h-16.30708v-16.30708z" stroke-width="6.23247"/><path d="M451.99204,277.84248v16.30708h-16.30708v-16.30708z" stroke-width="6.23247"/><path d="M468.29912,294.14956v16.30708h-16.30708v-16.30708z" stroke-width="6.23247"/><path d="M484.6062,277.84248v16.30708h-16.30708v-16.30708z" stroke-width="6.23247"/><path d="M500.91328,294.14956v16.30708h-16.30708v-16.30708z" stroke-width="6.23247"/><path d="M386.76372,277.84248v16.30708h-16.30708v-16.30708z" stroke-width="6.23247"/><path d="M403.0708,294.14956v16.30708h-16.30708v-16.30708z" stroke-width="6.23247"/><path d="M419.37788,277.84248v16.30708h-16.30708v-16.30708z" stroke-width="6.23247"/><path d="M435.68496,294.14956v16.30708h-16.30708v-16.30708z" stroke-width="6.23247"/><path d="M321.5354,277.84248v16.30708h-16.30708v-16.30708z" stroke-width="6.23247"/><path d="M337.84248,294.14956v16.30708h-16.30708v-16.30708z" stroke-width="6.23247"/><path d="M354.14956,277.84248v16.30708h-16.30708v-16.30708z" stroke-width="6.23247"/><path d="M370.45664,294.14956v16.30708h-16.30708v-16.30708z" stroke-width="6.23247"/><path d="M256.30708,277.84248v16.30708h-16.30708v-16.30708z" stroke-width="6.23247"/><path d="M272.61416,294.14956v16.30708h-16.30708v-16.30708z" stroke-width="6.23247"/><path d="M288.92124,277.84248v16.30708h-16.30708v-16.30708z" stroke-width="6.23247"/><path d="M305.22832,294.14956v16.30708h-16.30708v-16.30708z" stroke-width="6.23247"/><path d="M191.07876,245.22832v16.30708h-16.30708v-16.30708z" stroke-width="6.23247"/><path d="M207.38584,261.5354v16.30708h-16.30708v-16.30708z" stroke-width="6.23247"/><path d="M223.69292,245.22832v16.30708h-16.30708v-16.30708z" stroke-width="6.23247"/><path d="M240,261.5354v16.30708h-16.30708v-16.30708z" stroke-width="6.23247"/><path d="M125.85044,245.22832v16.30708h-16.30708v-16.30708z" stroke-width="6.23247"/><path d="M142.15752,261.5354v16.30708h-16.30708v-16.30708z" stroke-width="6.23247"/><path d="M158.4646,245.22832v16.30708h-16.30708v-16.30708z" stroke-width="6.23247"/><path d="M174.77168,261.5354v16.30708h-16.30708v-16.30708z" stroke-width="6.23247"/><path d="M60.62212,245.22832v16.30708h-16.30708v-16.30708z" stroke-width="6.23247"/><path d="M76.9292,261.5354v16.30708h-16.30708v-16.30708z" stroke-width="6.23247"/><path d="M93.23628,245.22832v16.30708h-16.30708v-16.30708z" stroke-width="6.23247"/><path d="M109.54336,261.5354v16.30708h-16.30708v-16.30708z" stroke-width="6.23247"/><path d="M-4.6062,245.22832v16.30708h-16.30708v-16.30708z" stroke-width="6.23247"/><path d="M11.70088,261.5354v16.30708h-16.30708v-16.30708z" stroke-width="6.23247"/><path d="M28.00796,245.22832v16.30708h-16.30708v-16.30708z" stroke-width="6.23247"/><path d="M44.31504,261.5354v16.30708h-16.30708v-16.30708z" stroke-width="6.23247"/><path d="M451.99204,245.22832v16.30708h-16.30708v-16.30708z" stroke-width="6.23247"/><path d="M468.29912,261.5354v16.30708h-16.30708v-16.30708z" stroke-width="6.23247"/><path d="M484.6062,245.22832v16.30708h-16.30708v-16.30708z" stroke-width="6.23247"/><path d="M500.91328,261.5354v16.30708h-16.30708v-16.30708z" stroke-width="6.23247"/><path d="M386.76372,245.22832v16.30708h-16.30708v-16.30708z" stroke-width="6.23247"/><path d="M403.0708,261.5354v16.30708h-16.30708v-16.30708z" stroke-width="6.23247"/><path d="M419.37788,245.22832v16.30708h-16.30708v-16.30708z" stroke-width="6.23247"/><path d="M435.68496,261.5354v16.30708h-16.30708v-16.30708z" stroke-width="6.23247"/><path d="M321.5354,245.22832v16.30708h-16.30708v-16.30708z" stroke-width="6.23247"/><path d="M337.84248,261.5354v16.30708h-16.30708v-16.30708z" stroke-width="6.23247"/><path d="M354.14956,245.22832v16.30708h-16.30708v-16.30708z" stroke-width="6.23247"/><path d="M370.45664,261.5354v16.30708h-16.30708v-16.30708z" stroke-width="6.23247"/><path d="M256.30708,245.22832v16.30708h-16.30708v-16.30708z" stroke-width="6.23247"/><path d="M272.61416,261.5354v16.30708h-16.30708v-16.30708z" stroke-width="6.23247"/><path d="M288.92124,245.22832v16.30708h-16.30708v-16.30708z" stroke-width="6.23247"/><path d="M305.22832,261.5354v16.30708h-16.30708v-16.30708z" stroke-width="6.23247"/><path d="M191.07876,212.61416v16.30708h-16.30708v-16.30708z" stroke-width="6.23247"/><path d="M207.38584,228.92124v16.30708h-16.30708v-16.30708z" stroke-width="6.23247"/><path d="M223.69292,212.61416v16.30708h-16.30708v-16.30708z" stroke-width="6.23247"/><path d="M240,228.92124v16.30708h-16.30708v-16.30708z" stroke-width="6.23247"/><path d="M125.85044,212.61416v16.30708h-16.30708v-16.30708z" stroke-width="6.23247"/><path d="M142.15752,228.92124v16.30708h-16.30708v-16.30708z" stroke-width="6.23247"/><path d="M158.4646,212.61416v16.30708h-16.30708v-16.30708z" stroke-width="6.23247"/><path d="M174.77168,228.92124v16.30708h-16.30708v-16.30708z" stroke-width="6.23247"/><path d="M60.62212,212.61416v16.30708h-16.30708v-16.30708z" stroke-width="6.23247"/><path d="M76.9292,228.92124v16.30708h-16.30708v-16.30708z" stroke-width="6.23247"/><path d="M93.23628,212.61416v16.30708h-16.30708v-16.30708z" stroke-width="6.23247"/><path d="M109.54336,228.92124v16.30708h-16.30708v-16.30708z" stroke-width="6.23247"/><path d="M-4.6062,212.61416v16.30708h-16.30708v-16.30708z" stroke-width="6.23247"/><path d="M11.70088,228.92124v16.30708h-16.30708v-16.30708z" stroke-width="6.23247"/><path d="M28.00796,212.61416v16.30708h-16.30708v-16.30708z" stroke-width="6.23247"/><path d="M44.31504,228.92124v16.30708h-16.30708v-16.30708z" stroke-width="6.23247"/><path d="M451.99204,212.61416v16.30708h-16.30708v-16.30708z" stroke-width="6.23247"/><path d="M468.29912,228.92124v16.30708h-16.30708v-16.30708z" stroke-width="6.23247"/><path d="M484.6062,212.61416v16.30708h-16.30708v-16.30708z" stroke-width="6.23247"/><path d="M500.91328,228.92124v16.30708h-16.30708v-16.30708z" stroke-width="6.23247"/><path d="M386.76372,212.61416v16.30708h-16.30708v-16.30708z" stroke-width="6.23247"/><path d="M403.0708,228.92124v16.30708h-16.30708v-16.30708z" stroke-width="6.23247"/><path d="M419.37788,212.61416v16.30708h-16.30708v-16.30708z" stroke-width="6.23247"/><path d="M435.68496,228.92124v16.30708h-16.30708v-16.30708z" stroke-width="6.23247"/><path d="M321.5354,212.61416v16.30708h-16.30708v-16.30708z" stroke-width="6.23247"/><path d="M337.84248,228.92124v16.30708h-16.30708v-16.30708z" stroke-width="6.23247"/><path d="M354.14956,212.61416v16.30708h-16.30708v-16.30708z" stroke-width="6.23247"/><path d="M370.45664,228.92124v16.30708h-16.30708v-16.30708z" stroke-width="6.23247"/><path d="M256.30708,212.61416v16.30708h-16.30708v-16.30708z" stroke-width="6.23247"/><path d="M272.61416,228.92124v16.30708h-16.30708v-16.30708z" stroke-width="6.23247"/><path d="M288.92124,212.61416v16.30708h-16.30708v-16.30708z" stroke-width="6.23247"/><path d="M305.22832,228.92124v16.30708h-16.30708v-16.30708z" stroke-width="6.23247"/><path d="M191.07876,180v16.30708h-16.30708v-16.30708z" stroke-width="6.23247"/><path d="M207.38584,196.30708v16.30708h-16.30708v-16.30708z" stroke-width="6.23247"/><path d="M223.69292,180v16.30708h-16.30708v-16.30708z" stroke-width="6.23247"/><path d="M240,196.30708v16.30708h-16.30708v-16.30708z" stroke-width="6.23247"/><path d="M125.85044,180v16.30708h-16.30708v-16.30708z" stroke-width="6.23247"/><path d="M142.15752,196.30708v16.30708h-16.30708v-16.30708z" stroke-width="6.23247"/><path d="M158.4646,180v16.30708h-16.30708v-16.30708z" stroke-width="6.23247"/><path d="M174.77168,196.30708v16.30708h-16.30708v-16.30708z" stroke-width="6.23247"/><path d="M60.62212,180v16.30708h-16.30708v-16.30708z" stroke-width="6.23247"/><path d="M76.9292,196.30708v16.30708h-16.30708v-16.30708z" stroke-width="6.23247"/><path d="M93.23628,180v16.30708h-16.30708v-16.30708z" stroke-width="6.23247"/><path d="M109.54336,196.30708v16.30708h-16.30708v-16.30708z" stroke-width="6.23247"/><path d="M-4.6062,180v16.30708h-16.30708v-16.30708z" stroke-width="6.23247"/><path d="M11.70088,196.30708v16.30708h-16.30708v-16.30708z" stroke-width="6.23247"/><path d="M28.00796,180v16.30708h-16.30708v-16.30708z" stroke-width="6.23247"/><path d="M44.31504,196.30708v16.30708h-16.30708v-16.30708z" stroke-width="6.23247"/><path d="M451.99204,180v16.30708h-16.30708v-16.30708z" stroke-width="6.23247"/><path d="M468.29912,196.30708v16.30708h-16.30708v-16.30708z" stroke-width="6.23247"/><path d="M484.6062,180v16.30708h-16.30708v-16.30708z" stroke-width="6.23247"/><path d="M500.91328,196.30708v16.30708h-16.30708v-16.30708z" stroke-width="6.23247"/><path d="M386.76372,180v16.30708h-16.30708v-16.30708z" stroke-width="6.23247"/><path d="M403.0708,196.30708v16.30708h-16.30708v-16.30708z" stroke-width="6.23247"/><path d="M419.37788,180v16.30708h-16.30708v-16.30708z" stroke-width="6.23247"/><path d="M435.68496,196.30708v16.30708h-16.30708v-16.30708z" stroke-width="6.23247"/><path d="M321.5354,180v16.30708h-16.30708v-16.30708z" stroke-width="6.23247"/><path d="M337.84248,196.30708v16.30708h-16.30708v-16.30708z" stroke-width="6.23247"/><path d="M354.14956,180v16.30708h-16.30708v-16.30708z" stroke-width="6.23247"/><path d="M370.45664,196.30708v16.30708h-16.30708v-16.30708z" stroke-width="6.23247"/><path d="M256.30708,180v16.30708h-16.30708v-16.30708z" stroke-width="6.23247"/><path d="M272.61416,196.30708v16.30708h-16.30708v-16.30708z" stroke-width="6.23247"/><path d="M288.92124,180v16.30708h-16.30708v-16.30708z" stroke-width="6.23247"/><path d="M305.22832,196.30708v16.30708h-16.30708v-16.30708z" stroke-width="6.23247"/><path d="M-26.39999,381.21503v-409h530v409z" stroke-width="0"/></g></g></svg>