<svg version="1.1" xmlns="http://www.w3.org/2000/svg" xmlns:xlink="http://www.w3.org/1999/xlink" width="30.89912" height="30.06902" viewBox="0,0,30.89912,30.06902"><g transform="translate(-226.25,-163.88442)"><g stroke-width="0.5" stroke-miterlimit="10"><path d="M226.5,193.5v-27h27v27z" fill="#ff0000" stroke="#000000"/><path d="M256.83607,165.28196c1.11803,2.23607 -1.11803,3.3541 -1.11803,3.3541l-1.35027,0.5317c-2.1706,2.1706 -4.90511,3.90511 -7,6c-1.3141,1.3141 -2.15754,3.06988 -3.4092,4.42992c0.3059,0.2441 0.62233,0.4726 0.95576,0.67569c1.63708,0.99715 3.65775,1.14876 5.47624,1.75492l2.4455,3.25367c0,0 1.11803,2.23607 -1.11803,3.3541c-2.23607,1.11803 -3.3541,-1.11803 -3.3541,-1.11803l0.4455,-0.74633c-0.6533,-0.21777 -6.17623,-2.03886 -6.52376,-2.24508c-0.87232,-0.51763 -1.60146,-1.24796 -2.33768,-1.96465c-0.15128,0.1374 -0.29488,0.2832 -0.42861,0.43989c-0.93013,1.08983 -1.09104,2.67142 -1.89127,3.85991c-1.52698,2.26784 -4.31959,4.36524 -6.26034,6.30599c0,0 -1.76777,1.76777 -3.53553,0c-1.76777,-1.76777 0,-3.53553 0,-3.53553c1.73895,-1.73895 4.38778,-3.64457 5.73966,-5.69401c0.79791,-1.20962 1.06447,-2.75236 1.92289,-3.90753c-0.51155,-0.14112 -1.00142,-0.31942 -1.41226,-0.64393c-1.02737,-0.81147 -1.32455,-2.29326 -2.25028,-3.219c-0.92573,-0.92573 -2.42011,-1.2131 -3.219,-2.25028c-0.80873,-1.04995 -0.92329,-2.48461 -1.38494,-3.72691c0,0 -0.79057,-2.37171 1.58114,-3.16228c2.37171,-0.79057 3.16228,1.58114 3.16228,1.58114c0.20502,0.7577 0.10871,1.67329 0.61506,2.27309c0.70649,0.83688 2.00657,0.97528 2.781,1.74972c0.77443,0.77443 0.90003,2.08997 1.74972,2.781c0.6944,0.56474 1.78137,0.33863 2.58089,0.74098c0.1412,0.07106 0.27918,0.14708 0.41436,0.22742c1.49701,-1.33105 2.29856,-3.32846 3.7195,-4.7494c2.10527,-2.10527 4.8272,-3.8272 7,-6l2.64973,-1.4683c0,0 2.23607,-1.11803 3.3541,1.11803z" fill="#000000" stroke="none"/></g></g></svg>