<svg version="1.1" xmlns="http://www.w3.org/2000/svg" xmlns:xlink="http://www.w3.org/1999/xlink" width="551.95652" height="578.61562" viewBox="0,0,551.95652,578.61562"><defs><radialGradient cx="17.61307" cy="170.56906" r="27.00582" gradientUnits="userSpaceOnUse" id="color-1"><stop offset="0" stop-color="#ff7200"/><stop offset="1" stop-color="#bd0000"/></radialGradient></defs><g transform="translate(44.8379,109.30781)"><g stroke="none" stroke-miterlimit="10"><path d="M-27.11862,469.30781v-578.61562h534.23724v578.61562z" fill="#000a2d" stroke-width="0"/><g stroke-width="0"><path d="M-44.8379,170.99099c0,-34.72378 28.14917,-62.87295 62.87295,-62.87295c34.72378,0 62.87295,28.14917 62.87295,62.87295c0,34.72378 -28.14917,62.87295 -62.87295,62.87295c-34.72378,0 -62.87295,-28.14917 -62.87295,-62.87295z" fill="#000000"/><path d="M-26.27142,171.41297c0,-24.23674 19.64774,-43.88448 43.88448,-43.88448c24.23674,0 43.88448,19.64774 43.88448,43.88448c0,24.23674 -19.64774,43.88448 -43.88448,43.88448c-24.23674,0 -43.88448,-19.64774 -43.88448,-43.88448z" fill="#bd0000"/><path d="M-13.6124,170.56906c0,-17.24538 13.98013,-31.22551 31.22551,-31.22551c17.24538,0 31.22551,13.98013 31.22551,31.22551c0,17.24538 -13.98013,31.22551 -31.22551,31.22551c-17.24538,0 -31.22551,-13.98013 -31.22551,-31.22551z" fill="#bd0000"/><path d="M-9.39275,170.56906c0,-14.9149 12.09096,-27.00582 27.00586,-27.00582c14.9149,0 27.00582,12.09092 27.00582,27.00582c0,14.9149 -12.09092,27.00586 -27.00582,27.00586c-14.9149,0 -27.00586,-12.09096 -27.00586,-27.00586z" fill="url(#color-1)"/><path d="M-7.70489,170.99103c0,-14.21577 11.52416,-25.73993 25.73993,-25.73993c14.21577,0 25.73998,11.52416 25.73998,25.73993c0,14.21577 -11.5242,25.73993 -25.73998,25.73993c-14.21577,0 -25.73993,-11.52416 -25.73993,-25.73993z" fill="#000000"/><path d="M-4.32915,170.99103c0,-12.35141 10.01279,-22.36424 22.3642,-22.36424c12.35141,0 22.36424,10.01284 22.36424,22.36424c0,12.35141 -10.01284,22.3642 -22.36424,22.3642c-12.35141,0 -22.3642,-10.01279 -22.3642,-22.3642z" fill="#bd0000"/><path d="M-0.95342,171.41297c0,-10.25402 8.31251,-18.56653 18.56653,-18.56653c10.25402,0 18.56653,8.31251 18.56653,18.56653c0,10.25402 -8.31251,18.56653 -18.56653,18.56653c-10.25402,0 -18.56653,-8.31251 -18.56653,-18.56653z" fill="#ff7b00"/></g><path d="M356.10001,67.39999c0,-1.38071 1.11929,-2.5 2.5,-2.5c1.38071,0 2.5,1.11929 2.5,2.5c0,1.38071 -1.11929,2.5 -2.5,2.5c-1.38071,0 -2.5,-1.11929 -2.5,-2.5z" fill="#ffffff" stroke-width="0.5"/><path d="M226.10001,245.39999c0,-1.38071 1.11929,-2.5 2.5,-2.5c1.38071,0 2.5,1.11929 2.5,2.5c0,1.38071 -1.11929,2.5 -2.5,2.5c-1.38071,0 -2.5,-1.11929 -2.5,-2.5z" fill="#ffffff" stroke-width="0.5"/><path d="M103.10001,53.39999c0,-1.38071 1.11929,-2.5 2.5,-2.5c1.38071,0 2.5,1.11929 2.5,2.5c0,1.38071 -1.11929,2.5 -2.5,2.5c-1.38071,0 -2.5,-1.11929 -2.5,-2.5z" fill="#ffffff" stroke-width="0.5"/><path d="M52.10001,281.39999c0,-1.38071 1.11929,-2.5 2.5,-2.5c1.38071,0 2.5,1.11929 2.5,2.5c0,1.38071 -1.11929,2.5 -2.5,2.5c-1.38071,0 -2.5,-1.11929 -2.5,-2.5z" fill="#ffffff" stroke-width="0.5"/><path d="M413.10001,282.39999c0,-1.38071 1.11929,-2.5 2.5,-2.5c1.38071,0 2.5,1.11929 2.5,2.5c0,1.38071 -1.11929,2.5 -2.5,2.5c-1.38071,0 -2.5,-1.11929 -2.5,-2.5z" fill="#ffffff" stroke-width="0.5"/><path d="M431.10001,127.39999c0,-1.38071 1.11929,-2.5 2.5,-2.5c1.38071,0 2.5,1.11929 2.5,2.5c0,1.38071 -1.11929,2.5 -2.5,2.5c-1.38071,0 -2.5,-1.11929 -2.5,-2.5z" fill="#ffffff" stroke-width="0.5"/><path d="M251.10001,130.39999c0,-1.38071 1.11929,-2.5 2.5,-2.5c1.38071,0 2.5,1.11929 2.5,2.5c0,1.38071 -1.11929,2.5 -2.5,2.5c-1.38071,0 -2.5,-1.11929 -2.5,-2.5z" fill="#ffffff" stroke-width="0.5"/><path d="M151.10001,49.39999c0,-1.38071 1.11929,-2.5 2.5,-2.5c1.38071,0 2.5,1.11929 2.5,2.5c0,1.38071 -1.11929,2.5 -2.5,2.5c-1.38071,0 -2.5,-1.11929 -2.5,-2.5z" fill="#ffffff" stroke-width="0.5"/><path d="M156.10001,117.39999c0,-1.38071 1.11929,-2.5 2.5,-2.5c1.38071,0 2.5,1.11929 2.5,2.5c0,1.38071 -1.11929,2.5 -2.5,2.5c-1.38071,0 -2.5,-1.11929 -2.5,-2.5z" fill="#ffffff" stroke-width="0.5"/><path d="M38.10001,92.39999c0,-1.38071 1.11929,-2.5 2.5,-2.5c1.38071,0 2.5,1.11929 2.5,2.5c0,1.38071 -1.11929,2.5 -2.5,2.5c-1.38071,0 -2.5,-1.11929 -2.5,-2.5z" fill="#ffffff" stroke-width="0.5"/><path d="M144.10001,261.39999c0,-1.38071 1.11929,-2.5 2.5,-2.5c1.38071,0 2.5,1.11929 2.5,2.5c0,1.38071 -1.11929,2.5 -2.5,2.5c-1.38071,0 -2.5,-1.11929 -2.5,-2.5z" fill="#ffffff" stroke-width="0.5"/><path d="M346.10001,257.39999c0,-1.38071 1.11929,-2.5 2.5,-2.5c1.38071,0 2.5,1.11929 2.5,2.5c0,1.38071 -1.11929,2.5 -2.5,2.5c-1.38071,0 -2.5,-1.11929 -2.5,-2.5z" fill="#ffffff" stroke-width="0.5"/><path d="M315.10001,83.39999c0,-1.38071 1.11929,-2.5 2.5,-2.5c1.38071,0 2.5,1.11929 2.5,2.5c0,1.38071 -1.11929,2.5 -2.5,2.5c-1.38071,0 -2.5,-1.11929 -2.5,-2.5z" fill="#ffffff" stroke-width="0.5"/><path d="M269.10001,85.39999c0,-1.38071 1.11929,-2.5 2.5,-2.5c1.38071,0 2.5,1.11929 2.5,2.5c0,1.38071 -1.11929,2.5 -2.5,2.5c-1.38071,0 -2.5,-1.11929 -2.5,-2.5z" fill="#ffffff" stroke-width="0.5"/><path d="M280.10001,229.39999c0,-1.38071 1.11929,-2.5 2.5,-2.5c1.38071,0 2.5,1.11929 2.5,2.5c0,1.38071 -1.11929,2.5 -2.5,2.5c-1.38071,0 -2.5,-1.11929 -2.5,-2.5z" fill="#ffffff" stroke-width="0.5"/><text transform="translate(99.14481,196.92096) scale(1.41008,1.41008)" font-size="40" xml:space="preserve" fill="#ffffff" stroke-width="1" font-family="Archivo Black" font-weight="normal" text-anchor="start"><tspan x="0" dy="0">Nexiscore</tspan></text></g></g></svg>